nColumns=19
nRows=48
DataType=double
version=3
OpenSimVersion=4.1
endheader
time	ground_force_1_vx	ground_force_1_vy	ground_force_1_vz	ground_force_1_px	ground_force_1_py	ground_force_1_pz	ground_force_1_mx	ground_force_1_my	ground_force_1_mz	ground_force_2_vx	ground_force_2_vy	ground_force_2_vz	ground_force_2_px	ground_force_2_py	ground_force_2_pz	ground_force_2_mx	ground_force_2_my	ground_force_2_mz
0.166667	-3.07726	14.3452	1.92259	1.05137	0	-0.600207	-0	3.5744	-0	0	0	0	-0.000594107	0	-4.72527e-05	0	0	0
0.175	-7.00944	34.8254	-0.737595	1.11091	0	-0.604493	-0	5.54279	-0	0	0	0	-0.000594107	0	-4.72527e-05	0	0	0
0.183333	-17.1382	96.2645	-6.24538	1.12807	0	-0.603133	-0	7.3291	-0	0	0	0	-0.000594107	0	-4.72527e-05	0	0	0
0.191667	-38.0439	252.69	-12.3784	1.13949	0	-0.608182	-0	8.47209	-0	0	0	0	-0.000594107	0	-4.72527e-05	0	0	0
0.2	-69.558	525.962	-15.1419	1.13941	0	-0.614771	-0	8.60721	-0	0	0	0	-0.000594107	0	-4.72527e-05	0	0	0
0.208333	-99.608	831.743	-10.2711	1.13031	0	-0.620312	-0	7.60624	-0	0	0	0	-0.000594107	0	-4.72527e-05	0	0	0
0.216667	-123.994	1046.44	3.70134	1.11692	0	-0.624162	-0	5.66019	-0	0	0	0	-0.000594107	0	-4.72527e-05	0	0	0
0.225	-163.047	1155.66	22.1503	1.10173	0	-0.626086	-0	3.24834	-0	0	0	0	-0.000594107	0	-4.72527e-05	0	0	0
0.233333	-212.57	1234.97	36.1087	1.08309	0	-0.62665	-0	0.987098	-0	0	0	0	-0.000594107	0	-4.72527e-05	0	0	0
0.241667	-231.214	1342.89	39.5946	1.05478	0	-0.62721	0	-0.577936	0	0	0	0	-0.000594107	0	-4.72527e-05	0	0	0
0.25	-203.286	1487.41	34.3001	1.01782	0	-0.628129	0	-1.13733	0	0	0	0	-0.000594107	0	-4.72527e-05	0	0	0
0.258333	-154.925	1638.63	25.7989	0.981629	0	-0.628393	0	-0.674514	0	0	0	0	-0.000594107	0	-4.72527e-05	0	0	0
0.266667	-111.498	1758.24	17.0392	0.950494	0	-0.627485	-0	0.57907	-0	0	0	0	-0.000594107	0	-4.72527e-05	0	0	0
0.275	-74.7791	1831.41	7.76522	0.921207	0	-0.626162	-0	2.23897	-0	0	0	0	-0.000594107	0	-4.72527e-05	0	0	0
0.283333	-36.6165	1865.96	-1.4752	0.890565	0	-0.625241	-0	3.87146	-0	0	0	0	-0.000594107	0	-4.72527e-05	0	0	0
0.291667	2.26233	1869.53	-8.24982	0.859398	0	-0.624648	-0	5.08929	-0	0	0	0	-0.000594107	0	-4.72527e-05	0	0	0
0.3	39.0398	1841.07	-11.1273	0.828831	0	-0.624083	-0	5.62735	-0	0	0	0	-0.000594107	0	-4.72527e-05	0	0	0
0.308333	80.0607	1777.6	-10.919	0.796979	0	-0.623825	-0	5.38261	-0	0	0	0	-0.000594107	0	-4.72527e-05	0	0	0
0.316667	132.946	1677.19	-8.50443	0.761198	0	-0.624104	-0	4.41366	-0	0	0	0	-0.000594107	0	-4.72527e-05	0	0	0
0.325	195.418	1542.93	-3.57709	0.722016	0	-0.624689	-0	2.91232	-0	0	0	0	-0.000594107	0	-4.72527e-05	0	0	0
0.333333	250.903	1384.73	3.70404	0.683815	0	-0.625508	-0	1.15952	-0	0	0	0	-0.000594107	0	-4.72527e-05	0	0	0
0.341667	282.61	1207.56	11.4896	0.64905	0	-0.626535	0	-0.531041	0	0	0	0	-0.000594107	0	-4.72527e-05	0	0	0
0.35	288.366	1007.37	17.5291	0.615339	0	-0.62729	0	-1.8774	0	0	0	0	-0.000594107	0	-4.72527e-05	0	0	0
0.358333	273.203	788.291	20.8491	0.581148	0	-0.627337	0	-2.68622	0	0	0	0	-0.000594107	0	-4.72527e-05	0	0	0
0.366667	239.204	570.233	21.7482	0.550006	0	-0.626761	0	-2.88434	0	0	0	0	-0.000594107	0	-4.72527e-05	0	0	0
0.375	188.439	376.378	20.7367	0.526404	0	-0.625213	0	-2.51838	0	0	0	0	-0.000594107	0	-4.72527e-05	0	0	0
0.383333	129.385	223.626	18.019	0.512811	0	-0.621498	0	-1.72964	0	0	0	0	-0.000594107	0	-4.72527e-05	0	0	0
0.391667	75.0051	118.6	14.029	0.51328	0	-0.615508	0	-0.71465	0	0	0	0	-0.000594107	0	-4.72527e-05	0	0	0
0.4	34.8568	56.1392	9.91433	0.529366	0	-0.608501	-0	0.321186	-0	0	0	0	-0.000594107	0	-4.72527e-05	0	0	0
0.408333	11.8756	24.5067	6.89184	0.542638	0	-0.598112	-0	1.20887	-0	0	0	0	-0.000594107	0	-4.72527e-05	0	0	0
0.416667	2.56947	11.8509	5.24754	0.571572	0	-0.588573	-0	1.84818	-0	0	0	0	-0.000594107	0	-4.72527e-05	0	0	0
0.425	0	0	0	-0.000594107	0	-4.72527e-05	0	0	0	0	0	0	-0.000594107	0	-4.72527e-05	0	0	0
0.433333	0	0	0	-0.000594107	0	-4.72527e-05	0	0	0	0	0	0	-0.000594107	0	-4.72527e-05	0	0	0
0.441667	0	0	0	-0.000594107	0	-4.72527e-05	0	0	0	0	0	0	-0.000594107	0	-4.72527e-05	0	0	0
0.45	0	0	0	-0.000594107	0	-4.72527e-05	0	0	0	0	0	0	-0.000594107	0	-4.72527e-05	0	0	0
0.458333	0	0	0	-0.000594107	0	-4.72527e-05	0	0	0	0	0	0	-0.000594107	0	-4.72527e-05	0	0	0
0.466667	0	0	0	-0.000594107	0	-4.72527e-05	0	0	0	0	0	0	-0.000594107	0	-4.72527e-05	0	0	0
0.475	0	0	0	-0.000594107	0	-4.72527e-05	0	0	0	0	0	0	-0.000594107	0	-4.72527e-05	0	0	0
0.483333	0	0	0	-0.000594107	0	-4.72527e-05	0	0	0	0	0	0	-0.000594107	0	-4.72527e-05	0	0	0
0.491667	0	0	0	-0.000594107	0	-4.72527e-05	0	0	0	-4.17524	14.5493	3.27213	1.01551	0	-0.629622	-0	0.806006	-0
0.5	0	0	0	-0.000594107	0	-4.72527e-05	0	0	0	-9.93933	44.0728	3.89345	1.10737	0	-0.637937	-0	0.66112	-0
0.508333	0	0	0	-0.000594107	0	-4.72527e-05	0	0	0	-24.5297	128.06	4.57154	1.13408	0	-0.644309	-0	0.840274	-0
0.516667	0	0	0	-0.000594107	0	-4.72527e-05	0	0	0	-48.5282	315.366	5.11553	1.13846	0	-0.645655	-0	1.50204	-0
0.525	0	0	0	-0.000594107	0	-4.72527e-05	0	0	0	-77.966	619.814	4.3924	1.13357	0	-0.646064	-0	2.71835	-0
0.533333	0	0	0	-0.000594107	0	-4.72527e-05	0	0	0	-110.245	943.655	0.0560647	1.12342	0	-0.646495	-0	4.4004	-0
0.541667	0	0	0	-0.000594107	0	-4.72527e-05	0	0	0	-145.692	1133.72	-8.64327	1.11005	0	-0.646599	-0	6.26871	-0
0.55	0	0	0	-0.000594107	0	-4.72527e-05	0	0	0	-186.297	1171.84	-17.1207	1.09456	0	-0.646704	-0	7.90821	-0
0.558333	0	0	0	-0.000594107	0	-4.72527e-05	0	0	0	-228.682	1192.62	-17.0823	1.07577	0	-0.647586	-0	8.90902	-0
